<svg height="512pt" viewBox="0 0 512 512" width="512pt" xmlns="http://www.w3.org/2000/svg" xmlns:xlink="http://www.w3.org/1999/xlink"><linearGradient id="a" gradientUnits="userSpaceOnUse" x1="0" x2="512" y1="256" y2="256"><stop offset="0" stop-color="#00f38d"/><stop offset="1" stop-color="#009eff"/></linearGradient><path d="m512 256c0 141.386719-114.613281 256-256 256s-256-114.613281-256-256 114.613281-256 256-256 256 114.613281 256 256zm0 0" fill="url(#a)"/><g fill="#fff"><path d="m146.40625 424.496094v-69.464844c-34.652344-29.253906-54.375-70.410156-54.375-114.015625 0-84.648437 73.558594-153.511719 163.96875-153.511719 90.414062 0 163.96875 68.863282 163.96875 153.511719 0 84.644531-73.554688 153.507813-163.96875 153.507813-14.253906 0-28.371094-1.722657-42.058594-5.125zm109.59375-306.992188c-73.871094 0-133.96875 55.40625-133.96875 123.511719 0 36.617187 17.6875 71.226563 48.523438 94.960937l5.851562 4.503907v34.613281l34.171875-17.757812 5.746094 1.648437c12.816406 3.675781 26.164062 5.539063 39.675781 5.539063 73.867188 0 133.96875-55.40625 133.96875-123.507813 0-68.105469-60.097656-123.511719-133.96875-123.511719zm0 0"/><path d="m178.621094 300.234375-19.878906-19.878906 78.105468-84.050781 37.6875 37.71875 60.9375-42.15625 19.851563 19.820312-79.023438 83.164062-37.933593-37.511718zm0 0"/></g></svg>